<svg width="19" height="24" viewBox="0 0 19 24" fill="none" xmlns="http://www.w3.org/2000/svg">
<path d="M18.9541 7.71831H14.4496C14.3672 7.13124 14.1993 6.60977 13.9457 6.15393C13.692 5.69117 13.3663 5.29748 12.9686 4.97288C12.571 4.64826 12.1116 4.39961 11.5905 4.22694C11.0762 4.05427 10.5175 3.96794 9.91415 3.96794C8.82401 3.96794 7.87441 4.24076 7.06538 4.78639C6.25633 5.32511 5.62899 6.11248 5.18333 7.1485C4.73767 8.17761 4.51484 9.42773 4.51484 10.8988C4.51484 12.4115 4.73767 13.6823 5.18333 14.7115C5.63584 15.7405 6.26662 16.5175 7.07566 17.0425C7.8847 17.5673 8.82058 17.8298 9.8833 17.8298C10.4798 17.8298 11.0318 17.7504 11.539 17.5916C12.0533 17.4327 12.5092 17.2013 12.9069 16.8974C13.3045 16.5866 13.6337 16.2102 13.8942 15.7681C14.1616 15.3261 14.3467 14.8219 14.4496 14.2556L14.7898 15.3122C14.6732 16.2861 15.256 15.889 14.7898 16.7938C14.3304 17.6917 15.5714 17.1184 14.7898 17.8298C14.015 18.5343 15.0221 20.0986 13.9457 20.513C12.8761 20.9206 11.7927 21.6109 9.91415 21.6109C8.03553 21.6109 6.25291 21.3696 4.77196 20.513C3.29786 19.6567 2.1323 18.4169 1.27527 16.7938C0.425088 15.1707 0 13.2058 0 10.8988C0 8.58511 0.431945 6.61668 1.29583 4.9936C2.15972 3.3705 3.33215 2.13419 4.8131 1.28466C6.29404 0.42822 7.96011 0 9.81131 0C11.0318 0 12.163 0.17267 13.2051 0.518008C14.2542 0.863346 15.1832 1.36754 15.9923 2.03058C16.8013 2.68673 17.4595 3.49137 17.9669 4.44451C18.4811 5.39763 18.8101 6.4889 18.9541 7.71831Z" fill="url(#paint0_linear_13_201)"/>
<path d="M12.8229 18.2904C11.7923 19.1223 10.5259 19.6912 9.02352 19.9968C7.45724 20.3153 6.0896 20.2151 4.92056 19.696C3.76426 19.1575 3.04482 18.1854 2.76224 16.7795C2.56736 15.81 2.65268 14.9517 3.01822 14.2045C3.38051 13.4412 3.97019 12.7746 4.78726 12.2048C5.60432 11.6349 6.59432 11.1393 7.75728 10.7177C8.30042 10.5231 8.90588 10.3074 9.57365 10.0707C10.2382 9.81778 10.901 9.5568 11.5624 9.28774C12.2203 9.00252 12.8048 8.72384 13.3158 8.45173C13.8393 8.1602 14.24 7.87689 14.5173 7.60181L15.3115 11.5527C15.5746 12.8615 15.4824 14.0996 15.035 15.2671C14.5876 16.4346 13.8502 17.4423 12.8229 18.2904Z" fill="url(#paint1_linear_13_201)"/>
<path d="M12.0345 21.7335C10.7989 21.8242 9.52039 21.5855 8.19897 21.0174C6.82133 20.4251 5.81854 19.6157 5.19058 18.5894C4.58272 17.5548 4.54145 16.4193 5.06678 15.1828C5.42908 14.3301 5.94889 13.713 6.62621 13.332C7.30957 12.9366 8.11732 12.7376 9.04947 12.7349C9.98161 12.7323 11.008 12.8794 12.1288 13.1763C12.651 13.3169 13.2324 13.4743 13.8731 13.649C14.5199 13.8094 15.1697 13.9627 15.8225 14.1089C16.4813 14.2408 17.0798 14.3384 17.6182 14.4019C18.1766 14.457 18.6357 14.4527 18.9954 14.3888L17.519 17.8637C17.0298 19.015 16.3038 19.9215 15.3411 20.5833C14.3783 21.2451 13.276 21.6285 12.0345 21.7335Z" fill="url(#paint2_linear_13_201)"/>
<defs>
<linearGradient id="paint0_linear_13_201" x1="12.4687" y1="16.3439" x2="-1.96451" y2="21.7713" gradientUnits="userSpaceOnUse">
<stop stop-color="#5D1467"/>
<stop offset="0.966346" stop-color="#DD3CB3"/>
</linearGradient>
<linearGradient id="paint1_linear_13_201" x1="10.3485" y1="21.1258" x2="15.318" y2="7.60295" gradientUnits="userSpaceOnUse">
<stop offset="0.00961536" stop-color="#5D1467"/>
<stop offset="1" stop-color="#A62A85"/>
</linearGradient>
<linearGradient id="paint2_linear_13_201" x1="19.583" y1="14.7758" x2="8.58122" y2="22.5364" gradientUnits="userSpaceOnUse">
<stop offset="0.00961536" stop-color="#5D1467"/>
<stop offset="1" stop-color="#A62A85"/>
</linearGradient>
</defs>
</svg>
