<svg width="176" height="221" viewBox="0 0 176 221" fill="none" xmlns="http://www.w3.org/2000/svg">
<path d="M175.575 71.0728H133.849C133.086 65.6668 131.53 60.865 129.181 56.6674C126.831 52.4062 123.814 48.781 120.13 45.7919C116.447 42.8027 112.192 40.5131 107.365 38.9231C102.601 37.3331 97.4253 36.5381 91.8363 36.5381C81.7382 36.5381 72.9419 39.0503 65.4477 44.0747C57.9534 49.0354 52.1422 56.2858 48.014 65.8258C43.8858 75.3022 41.8217 86.8137 41.8217 100.36C41.8217 114.289 43.8858 125.991 48.014 135.468C52.2057 144.944 58.0487 152.099 65.543 156.933C73.0372 161.766 81.7064 164.183 91.5506 164.183C97.076 164.183 102.189 163.452 106.888 161.989C111.652 160.526 115.875 158.395 119.559 155.597C123.242 152.735 126.291 149.269 128.704 145.198C131.181 141.128 132.896 136.485 133.849 131.27L137 141C135.92 149.968 141.319 146.311 137 154.643C132.745 162.911 144.24 157.632 137 164.183C129.823 170.67 139.152 185.075 129.181 188.891C119.273 192.644 109.238 199 91.8363 199C74.4344 199 57.9217 196.778 44.2034 188.891C30.5486 181.005 19.7518 169.589 11.813 154.643C3.93766 139.697 0 121.603 0 100.36C0 79.0546 4.00117 60.9286 12.0035 45.9827C20.0058 31.0367 30.8662 19.6523 44.5845 11.8296C58.3027 3.94319 73.7358 0 90.8837 0C102.189 0 112.668 1.59 122.321 4.76999C132.039 7.94998 140.644 12.5928 148.139 18.6983C155.633 24.7403 161.73 32.1497 166.43 40.9265C171.193 49.7032 174.241 59.752 175.575 71.0728Z" fill="url(#paint0_linear_13_200)"/>
<path d="M118.781 168.424C109.234 176.085 97.503 181.323 83.5864 184.137C69.0777 187.07 56.409 186.147 45.58 181.367C34.869 176.409 28.2047 167.457 25.5871 154.511C23.7819 145.584 24.5723 137.68 27.9583 130.8C31.3143 123.771 36.7766 117.633 44.3452 112.386C51.9138 107.138 61.0843 102.574 71.857 98.6918C76.8882 96.9001 82.4967 94.9142 88.6823 92.7342C94.8377 90.4054 100.978 88.0022 107.104 85.5246C113.199 82.8982 118.613 80.3321 123.346 77.8264C128.196 75.1419 131.907 72.5331 134.476 70L141.833 106.381C144.27 118.433 143.416 129.834 139.272 140.585C135.127 151.335 128.297 160.615 118.781 168.424Z" fill="url(#paint1_linear_13_200)"/>
<path d="M111.477 200.129C100.032 200.964 88.1888 198.766 75.9483 193.535C63.187 188.081 53.898 180.628 48.0811 171.177C42.4504 161.65 42.0681 151.194 46.9344 139.808C50.2904 131.956 55.1055 126.274 61.3796 122.765C67.7097 119.124 75.192 117.292 83.8266 117.267C92.4612 117.243 101.969 118.598 112.351 121.332C117.188 122.626 122.574 124.076 128.509 125.684C134.5 127.161 140.519 128.573 146.566 129.919C152.669 131.134 158.213 132.033 163.2 132.617C168.373 133.125 172.625 133.085 175.957 132.497L162.281 164.495C157.75 175.096 151.025 183.444 142.107 189.538C133.188 195.632 122.978 199.162 111.477 200.129Z" fill="url(#paint2_linear_13_200)"/>
<defs>
<linearGradient id="paint0_linear_13_200" x1="29" y1="-119" x2="88" y2="188.5" gradientUnits="userSpaceOnUse">
<stop offset="0.356312" stop-color="#5D1467"/>
<stop offset="0.485702" stop-color="#9D288D"/>
<stop offset="0.752116" stop-color="#F77328"/>
</linearGradient>
<linearGradient id="paint1_linear_13_200" x1="95.8598" y1="194.533" x2="141.414" y2="69.8354" gradientUnits="userSpaceOnUse">
<stop offset="0.00961536" stop-color="#F77328"/>
<stop offset="1" stop-color="#FBF3A7"/>
</linearGradient>
<linearGradient id="paint2_linear_13_200" x1="181.4" y1="136.06" x2="79.892" y2="208.09" gradientUnits="userSpaceOnUse">
<stop offset="0.00961536" stop-color="#FCB225"/>
<stop offset="1" stop-color="#E04A42"/>
</linearGradient>
</defs>
</svg>
