<svg width="58" height="24" viewBox="0 0 58 24" fill="none" xmlns="http://www.w3.org/2000/svg">
<path d="M21.8745 0.253387V18.7873H18.0215V0.253387H21.8745Z" fill="url(#paint0_linear_13_206)"/>
<path d="M25.8114 24C25.323 24 24.8648 23.9608 24.4367 23.8823C24.0146 23.8099 23.6649 23.7164 23.3875 23.6018L24.2558 20.724C24.708 20.8627 25.115 20.9382 25.4768 20.9502C25.8446 20.9623 26.1612 20.8778 26.4265 20.6968C26.6978 20.5158 26.9179 20.2081 27.0867 19.7737L27.3128 19.1855L22.3293 4.88687H26.3812L29.2574 15.095H29.4021L32.3054 4.88687H36.3845L30.9849 20.2896C30.7256 21.0377 30.3729 21.6893 29.9267 22.2443C29.4865 22.8054 28.9288 23.2368 28.2535 23.5385C27.5781 23.8461 26.7641 24 25.8114 24Z" fill="url(#paint1_linear_13_206)"/>
<path d="M36.828 18.7873V4.88687H40.5634V7.31221H40.7081C40.9614 6.44947 41.3865 5.79788 41.9834 5.35746C42.5803 4.911 43.2677 4.68778 44.0456 4.68778C44.2385 4.68778 44.4465 4.69984 44.6696 4.72397C44.8927 4.74811 45.0887 4.78129 45.2575 4.82352V8.24434C45.0766 8.19004 44.8264 8.14177 44.5068 8.09954C44.1873 8.05731 43.8948 8.03619 43.6295 8.03619C43.0627 8.03619 42.5562 8.15987 42.11 8.40723C41.6699 8.64856 41.3201 8.98642 41.0609 9.42081C40.8076 9.8552 40.681 10.356 40.681 10.9231V18.7873H36.828Z" fill="url(#paint2_linear_13_206)"/>
<path d="M49.285 19.0498C48.3986 19.0498 47.6087 18.8959 46.9153 18.5882C46.2219 18.2745 45.6732 17.813 45.2692 17.2036C44.8712 16.5882 44.6723 15.822 44.6723 14.905C44.6723 14.1327 44.814 13.4842 45.0973 12.9593C45.3807 12.4344 45.7666 12.0121 46.255 11.6923C46.7435 11.3725 47.2982 11.1312 47.9192 10.9683C48.5463 10.8054 49.2036 10.6908 49.8909 10.6244C50.6989 10.54 51.3501 10.4615 51.8446 10.3891C52.339 10.3107 52.6978 10.1961 52.9209 10.0452C53.144 9.89441 53.2555 9.67119 53.2555 9.37556V9.32126C53.2555 8.74811 53.0746 8.30467 52.7128 7.99094C52.3571 7.67722 51.8506 7.52036 51.1934 7.52036C50.4999 7.52036 49.9482 7.6742 49.5382 7.98189C49.1282 8.28355 48.8569 8.66364 48.7242 9.12217L45.1607 8.83257C45.3415 7.98793 45.6973 7.25791 46.2279 6.64253C46.7585 6.02111 47.4429 5.54449 48.281 5.21266C49.1252 4.8748 50.102 4.70588 51.2114 4.70588C51.9832 4.70588 52.7219 4.79637 53.4273 4.97737C54.1389 5.15836 54.769 5.43891 55.3177 5.819C55.8724 6.19909 56.3095 6.68778 56.6291 7.28506C56.9487 7.87631 57.1085 8.58521 57.1085 9.41176V18.7873H53.4545V16.8597H53.346C53.1229 17.2941 52.8244 17.6772 52.4505 18.009C52.0767 18.3348 51.6275 18.5912 51.1029 18.7783C50.5783 18.9593 49.9723 19.0498 49.285 19.0498ZM50.3884 16.3891C50.9552 16.3891 51.4556 16.2775 51.8898 16.0543C52.3239 15.825 52.6646 15.5173 52.9118 15.1312C53.159 14.7451 53.2826 14.3077 53.2826 13.819V12.3439C53.162 12.4223 52.9962 12.4947 52.7852 12.5611C52.5802 12.6214 52.348 12.6787 52.0888 12.733C51.8295 12.7813 51.5702 12.8265 51.3109 12.8688C51.0517 12.905 50.8165 12.9382 50.6055 12.9683C50.1532 13.0347 49.7583 13.1403 49.4206 13.2851C49.083 13.4299 48.8207 13.6259 48.6338 13.8733C48.4468 14.1146 48.3534 14.4163 48.3534 14.7783C48.3534 15.3032 48.5433 15.7044 48.9232 15.9819C49.3091 16.2534 49.7975 16.3891 50.3884 16.3891Z" fill="url(#paint3_linear_13_206)"/>
<path d="M16.9117 6.84584H12.8925C12.8191 6.32512 12.6692 5.86261 12.4429 5.45829C12.2165 5.04785 11.9259 4.69866 11.5711 4.41074C11.2163 4.12282 10.8065 3.90228 10.3415 3.74913C9.88272 3.59598 9.38415 3.5194 8.84582 3.5194C7.87314 3.5194 7.02588 3.76138 6.30402 4.24534C5.58216 4.72317 5.02242 5.42154 4.62478 6.34044C4.22715 7.25322 4.02833 8.36203 4.02833 9.66687C4.02833 11.0085 4.22715 12.1357 4.62478 13.0484C5.02853 13.9612 5.59134 14.6504 6.3132 15.116C7.03505 15.5816 7.87008 15.8143 8.81829 15.8143C9.3505 15.8143 9.84296 15.7439 10.2956 15.603C10.7545 15.4621 11.1613 15.2569 11.5161 14.9873C11.8709 14.7117 12.1645 14.3778 12.397 13.9857C12.6356 13.5937 12.8007 13.1465 12.8925 12.6441L13.196 13.5813C13.0921 14.4451 13.612 14.0929 13.196 14.8954C12.7862 15.6918 13.8934 15.1834 13.196 15.8143C12.5048 16.4392 13.4033 17.8267 12.4429 18.1943C11.4885 18.5557 10.522 19.168 8.84582 19.168C7.16964 19.168 5.5791 18.9539 4.25774 18.1943C2.94249 17.4347 1.90252 16.3351 1.13784 14.8954C0.379281 13.4558 0 11.713 0 9.66687C0 7.61465 0.385399 5.86874 1.1562 4.42912C1.92699 2.9895 2.97307 1.89294 4.29444 1.13944C5.61581 0.379814 7.10235 0 8.75405 0C9.84296 0 10.8523 0.153151 11.7822 0.459452C12.7182 0.765754 13.5471 1.21295 14.2689 1.80105C14.9908 2.38302 15.5781 3.09671 16.0307 3.9421C16.4896 4.78749 16.7832 5.7554 16.9117 6.84584Z" fill="url(#paint4_linear_13_206)"/>
<path d="M11.4412 16.2229C10.5217 16.9608 9.39168 17.4653 8.05122 17.7363C6.65372 18.0189 5.43344 17.93 4.39038 17.4696C3.35868 16.9919 2.71676 16.1297 2.46463 14.8828C2.29075 14.0228 2.36689 13.2615 2.69303 12.5989C3.01628 11.9219 3.54242 11.3306 4.27144 10.8252C5.00046 10.3197 5.88378 9.88006 6.92142 9.50615C7.40603 9.33357 7.94625 9.14228 8.54205 8.9323C9.13496 8.70799 9.72641 8.47651 10.3164 8.23786C10.9035 7.98488 11.425 7.73772 11.8809 7.49636C12.3481 7.23778 12.7055 6.9865 12.953 6.74251L13.6616 10.2467C13.8963 11.4076 13.8141 12.5058 13.4149 13.5413C13.0157 14.5768 12.3578 15.4707 11.4412 16.2229Z" fill="url(#paint5_linear_13_206)"/>
<path d="M10.7376 19.2767C9.63519 19.3572 8.49446 19.1454 7.31545 18.6415C6.08626 18.1162 5.19152 17.3984 4.63123 16.488C4.08887 15.5704 4.05205 14.5633 4.52078 13.4665C4.84404 12.7102 5.30783 12.1629 5.91217 11.8249C6.52189 11.4742 7.2426 11.2977 8.07429 11.2954C8.90599 11.293 9.82182 11.4235 10.8218 11.6869C11.2877 11.8115 11.8065 11.9512 12.3782 12.1061C12.9552 12.2483 13.535 12.3843 14.1174 12.514C14.7053 12.631 15.2393 12.7176 15.7197 12.7738C16.2179 12.8228 16.6275 12.8189 16.9484 12.7623L15.6311 15.8445C15.1947 16.8655 14.547 17.6696 13.6879 18.2566C12.8289 18.8436 11.8454 19.1836 10.7376 19.2767Z" fill="url(#paint6_linear_13_206)"/>
<defs>
<linearGradient id="paint0_linear_13_206" x1="-1.1397" y1="9.62895" x2="58.9521" y2="9.62895" gradientUnits="userSpaceOnUse">
<stop offset="0.00961536" stop-color="white"/>
<stop offset="0.0528846" stop-color="#FBF3A7"/>
<stop offset="0.153846" stop-color="#FCB225"/>
<stop offset="0.3125" stop-color="#F77328"/>
<stop offset="0.432692" stop-color="#F77328"/>
<stop offset="0.572115" stop-color="#E04A42"/>
<stop offset="0.730769" stop-color="#851F6A"/>
<stop offset="0.836538" stop-color="#5D1467"/>
<stop offset="1" stop-color="#2F0D58"/>
</linearGradient>
<linearGradient id="paint1_linear_13_206" x1="-1.1397" y1="9.62895" x2="58.9521" y2="9.62895" gradientUnits="userSpaceOnUse">
<stop offset="0.00961536" stop-color="white"/>
<stop offset="0.0528846" stop-color="#FBF3A7"/>
<stop offset="0.153846" stop-color="#FCB225"/>
<stop offset="0.3125" stop-color="#F77328"/>
<stop offset="0.432692" stop-color="#F77328"/>
<stop offset="0.572115" stop-color="#E04A42"/>
<stop offset="0.730769" stop-color="#851F6A"/>
<stop offset="0.836538" stop-color="#5D1467"/>
<stop offset="1" stop-color="#2F0D58"/>
</linearGradient>
<linearGradient id="paint2_linear_13_206" x1="-1.1397" y1="9.62895" x2="58.9521" y2="9.62895" gradientUnits="userSpaceOnUse">
<stop offset="0.00961536" stop-color="white"/>
<stop offset="0.0528846" stop-color="#FBF3A7"/>
<stop offset="0.153846" stop-color="#FCB225"/>
<stop offset="0.3125" stop-color="#F77328"/>
<stop offset="0.432692" stop-color="#F77328"/>
<stop offset="0.572115" stop-color="#E04A42"/>
<stop offset="0.730769" stop-color="#851F6A"/>
<stop offset="0.836538" stop-color="#5D1467"/>
<stop offset="1" stop-color="#2F0D58"/>
</linearGradient>
<linearGradient id="paint3_linear_13_206" x1="-1.1397" y1="9.62895" x2="58.9521" y2="9.62895" gradientUnits="userSpaceOnUse">
<stop offset="0.00961536" stop-color="white"/>
<stop offset="0.0528846" stop-color="#FBF3A7"/>
<stop offset="0.153846" stop-color="#FCB225"/>
<stop offset="0.3125" stop-color="#F77328"/>
<stop offset="0.432692" stop-color="#F77328"/>
<stop offset="0.572115" stop-color="#E04A42"/>
<stop offset="0.730769" stop-color="#851F6A"/>
<stop offset="0.836538" stop-color="#5D1467"/>
<stop offset="1" stop-color="#2F0D58"/>
</linearGradient>
<linearGradient id="paint4_linear_13_206" x1="2.79332" y1="-11.4623" x2="8.47629" y2="18.1566" gradientUnits="userSpaceOnUse">
<stop offset="0.356312" stop-color="#5D1467"/>
<stop offset="0.485702" stop-color="#9D288D"/>
<stop offset="0.752116" stop-color="#F77328"/>
</linearGradient>
<linearGradient id="paint5_linear_13_206" x1="9.2334" y1="18.7378" x2="13.6213" y2="6.72666" gradientUnits="userSpaceOnUse">
<stop offset="0.00961536" stop-color="#F77328"/>
<stop offset="1" stop-color="#FBF3A7"/>
</linearGradient>
<linearGradient id="paint6_linear_13_206" x1="17.4727" y1="13.1055" x2="7.6953" y2="20.0436" gradientUnits="userSpaceOnUse">
<stop offset="0.00961536" stop-color="#FCB225"/>
<stop offset="1" stop-color="#E04A42"/>
</linearGradient>
</defs>
</svg>
