<svg width="57" height="24" viewBox="0 0 57 24" fill="none" xmlns="http://www.w3.org/2000/svg">
<path d="M21.7436 0.253395V18.7873H17.8882V0.253395H21.7436Z" fill="url(#paint0_linear_2_19)"/>
<path d="M25.6831 24C25.1944 24 24.7358 23.9608 24.3075 23.8824C23.8851 23.81 23.5352 23.7164 23.2576 23.6018L24.1265 20.724C24.579 20.8627 24.9862 20.9382 25.3482 20.9502C25.7163 20.9623 26.033 20.8778 26.2985 20.6968C26.57 20.5158 26.7903 20.2081 26.9592 19.7738L27.1854 19.1855L22.1988 4.88688H26.2533L29.1313 15.095H29.2761L32.1812 4.88688H36.2629L30.8599 20.2896C30.6004 21.0377 30.2475 21.6893 29.801 22.2443C29.3605 22.8054 28.8024 23.2368 28.1267 23.5385C27.4509 23.8462 26.6364 24 25.6831 24Z" fill="url(#paint1_linear_2_19)"/>
<path d="M36.7067 18.7873V4.88688H40.4444V7.31222H40.5893C40.8427 6.44947 41.268 5.79789 41.8653 5.35747C42.4627 4.91101 43.1505 4.68778 43.9288 4.68778C44.1219 4.68778 44.33 4.69985 44.5533 4.72398C44.7765 4.74812 44.9726 4.7813 45.1415 4.82353V8.24435C44.9605 8.19005 44.7101 8.14178 44.3904 8.09955C44.0706 8.05732 43.778 8.0362 43.5125 8.0362C42.9453 8.0362 42.4385 8.15988 41.992 8.40724C41.5516 8.64857 41.2017 8.98643 40.9422 9.42082C40.6888 9.85521 40.5621 10.356 40.5621 10.9231V18.7873H36.7067Z" fill="url(#paint2_linear_2_19)"/>
<path d="M49.1715 19.0498C48.2846 19.0498 47.4942 18.8959 46.8004 18.5882C46.1065 18.2745 45.5575 17.813 45.1532 17.2036C44.755 16.5882 44.5559 15.822 44.5559 14.905C44.5559 14.1327 44.6977 13.4842 44.9813 12.9593C45.2648 12.4344 45.651 12.0121 46.1397 11.6923C46.6284 11.3725 47.1835 11.1312 47.8049 10.9683C48.4324 10.8054 49.0901 10.6908 49.7779 10.6244C50.5864 10.54 51.238 10.4615 51.7327 10.3891C52.2275 10.3107 52.5865 10.1961 52.8097 10.0453C53.033 9.89442 53.1446 9.67119 53.1446 9.37557V9.32127C53.1446 8.74812 52.9636 8.30468 52.6016 7.99095C52.2456 7.67723 51.7388 7.52036 51.0811 7.52036C50.3873 7.52036 49.8352 7.67421 49.4249 7.9819C49.0147 8.28356 48.7431 8.66365 48.6104 9.12217L45.0446 8.83258C45.2256 7.98793 45.5816 7.25792 46.1125 6.64254C46.6435 6.02112 47.3283 5.54449 48.1669 5.21267C49.0116 4.87481 49.9891 4.70588 51.0992 4.70588C51.8715 4.70588 52.6106 4.79638 53.3165 4.97738C54.0285 5.15837 54.659 5.43892 55.208 5.81901C55.7631 6.1991 56.2006 6.68778 56.5203 7.28507C56.8401 7.87632 57 8.58522 57 9.41177V18.7873H53.3437V16.8597H53.2351C53.0119 17.2941 52.7132 17.6772 52.3391 18.0091C51.965 18.3348 51.5155 18.5913 50.9906 18.7783C50.4657 18.9593 49.8593 19.0498 49.1715 19.0498ZM50.2757 16.3891C50.8428 16.3891 51.3436 16.2775 51.778 16.0543C52.2124 15.825 52.5533 15.5173 52.8007 15.1312C53.0481 14.7451 53.1717 14.3077 53.1717 13.819V12.3439C53.0511 12.4223 52.8851 12.4947 52.674 12.5611C52.4688 12.6214 52.2365 12.6787 51.9771 12.733C51.7177 12.7813 51.4582 12.8265 51.1988 12.8688C50.9393 12.905 50.704 12.9382 50.4929 12.9683C50.0403 13.0347 49.6452 13.1403 49.3073 13.2851C48.9694 13.4299 48.7069 13.6259 48.5199 13.8733C48.3329 14.1146 48.2393 14.4163 48.2393 14.7783C48.2393 15.3032 48.4294 15.7044 48.8095 15.9819C49.1957 16.2534 49.6844 16.3891 50.2757 16.3891Z" fill="url(#paint3_linear_2_19)"/>
<path d="M16.6796 6.74208H12.7156C12.6432 6.22926 12.4954 5.77376 12.2722 5.37557C12.0489 4.97134 11.7623 4.62745 11.4124 4.34389C11.0624 4.06033 10.6582 3.84314 10.1996 3.69231C9.74713 3.54148 9.2554 3.46606 8.72445 3.46606C7.76513 3.46606 6.92948 3.70437 6.21753 4.181C5.50558 4.65158 4.95351 5.33937 4.56133 6.24434C4.16915 7.14329 3.97307 8.23529 3.97307 9.52036C3.97307 10.8416 4.16915 11.9517 4.56133 12.8507C4.95954 13.7496 5.51463 14.4284 6.22658 14.8869C6.93853 15.3454 7.76211 15.5747 8.6973 15.5747C9.22222 15.5747 9.70792 15.5053 10.1544 15.3665C10.6069 15.2278 11.0081 15.0256 11.3581 14.7602C11.708 14.4887 11.9976 14.1599 12.2269 13.7738C12.4622 13.3876 12.6251 12.9472 12.7156 12.4525L16.6796 12.4706C16.5771 13.3213 16.3206 14.1418 15.9104 14.9321C15.5061 15.7164 14.9601 16.4193 14.2723 17.0407C13.5905 17.6561 12.776 18.1448 11.8287 18.5068C10.8875 18.8627 9.82255 19.0407 8.63395 19.0407C6.98077 19.0407 5.50256 18.6667 4.19932 17.9185C2.90212 17.1704 1.87642 16.0875 1.12223 14.6697C0.374077 13.2519 0 11.5354 0 9.52036C0 7.49925 0.380111 5.77979 1.14033 4.36199C1.90056 2.94419 2.93229 1.86425 4.23552 1.12217C5.53876 0.374058 7.0049 0 8.63395 0C9.70792 0 10.7034 0.15083 11.6205 0.452489C12.5437 0.754148 13.3612 1.19457 14.0732 1.77375C14.7851 2.34691 15.3643 3.04977 15.8108 3.88235C16.2633 4.71493 16.5529 5.66817 16.6796 6.74208Z" fill="url(#paint4_linear_2_19)"/>
<defs>
<linearGradient id="paint0_linear_2_19" x1="-1.28514" y1="9.62896" x2="58.8448" y2="9.62896" gradientUnits="userSpaceOnUse">
<stop offset="0.00961536" stop-color="white"/>
<stop offset="0.0528846" stop-color="#FBF3A7"/>
<stop offset="0.153846" stop-color="#FCB225"/>
<stop offset="0.3125" stop-color="#F77328"/>
<stop offset="0.432692" stop-color="#F77328"/>
<stop offset="0.572115" stop-color="#E04A42"/>
<stop offset="0.730769" stop-color="#851F6A"/>
<stop offset="0.836538" stop-color="#5D1467"/>
<stop offset="1" stop-color="#2F0D58"/>
</linearGradient>
<linearGradient id="paint1_linear_2_19" x1="-1.28514" y1="9.62896" x2="58.8448" y2="9.62896" gradientUnits="userSpaceOnUse">
<stop offset="0.00961536" stop-color="white"/>
<stop offset="0.0528846" stop-color="#FBF3A7"/>
<stop offset="0.153846" stop-color="#FCB225"/>
<stop offset="0.3125" stop-color="#F77328"/>
<stop offset="0.432692" stop-color="#F77328"/>
<stop offset="0.572115" stop-color="#E04A42"/>
<stop offset="0.730769" stop-color="#851F6A"/>
<stop offset="0.836538" stop-color="#5D1467"/>
<stop offset="1" stop-color="#2F0D58"/>
</linearGradient>
<linearGradient id="paint2_linear_2_19" x1="-1.28514" y1="9.62896" x2="58.8448" y2="9.62896" gradientUnits="userSpaceOnUse">
<stop offset="0.00961536" stop-color="white"/>
<stop offset="0.0528846" stop-color="#FBF3A7"/>
<stop offset="0.153846" stop-color="#FCB225"/>
<stop offset="0.3125" stop-color="#F77328"/>
<stop offset="0.432692" stop-color="#F77328"/>
<stop offset="0.572115" stop-color="#E04A42"/>
<stop offset="0.730769" stop-color="#851F6A"/>
<stop offset="0.836538" stop-color="#5D1467"/>
<stop offset="1" stop-color="#2F0D58"/>
</linearGradient>
<linearGradient id="paint3_linear_2_19" x1="-1.28514" y1="9.62896" x2="58.8448" y2="9.62896" gradientUnits="userSpaceOnUse">
<stop offset="0.00961536" stop-color="white"/>
<stop offset="0.0528846" stop-color="#FBF3A7"/>
<stop offset="0.153846" stop-color="#FCB225"/>
<stop offset="0.3125" stop-color="#F77328"/>
<stop offset="0.432692" stop-color="#F77328"/>
<stop offset="0.572115" stop-color="#E04A42"/>
<stop offset="0.730769" stop-color="#851F6A"/>
<stop offset="0.836538" stop-color="#5D1467"/>
<stop offset="1" stop-color="#2F0D58"/>
</linearGradient>
<linearGradient id="paint4_linear_2_19" x1="-1.28514" y1="9.62896" x2="58.8448" y2="9.62896" gradientUnits="userSpaceOnUse">
<stop offset="0.00961536" stop-color="white"/>
<stop offset="0.0528846" stop-color="#FBF3A7"/>
<stop offset="0.153846" stop-color="#FCB225"/>
<stop offset="0.3125" stop-color="#F77328"/>
<stop offset="0.432692" stop-color="#F77328"/>
<stop offset="0.572115" stop-color="#E04A42"/>
<stop offset="0.730769" stop-color="#851F6A"/>
<stop offset="0.836538" stop-color="#5D1467"/>
<stop offset="1" stop-color="#2F0D58"/>
</linearGradient>
</defs>
</svg>
